<svg width="21" height="21" viewBox="0 0 21 21" fill="none" xmlns="http://www.w3.org/2000/svg">
<path d="M10.2329 0.746704C7.85841 0.746803 5.5614 1.59182 3.7529 3.13055C1.9444 4.66929 0.742438 6.80133 0.362071 9.14519C-0.0182972 11.489 0.447755 13.8918 1.67684 15.9235C2.90592 17.9551 4.81782 19.4832 7.07046 20.2342C7.57046 20.3217 7.75796 20.0217 7.75796 19.7592C7.75796 19.5217 7.74545 18.7342 7.74545 17.8967C5.23294 18.3592 4.58294 17.2842 4.38294 16.7217C4.16101 16.1747 3.80921 15.6899 3.35794 15.3092C3.00794 15.1217 2.50794 14.6592 3.34543 14.6467C3.66521 14.6814 3.97192 14.7927 4.23957 14.9711C4.50721 15.1495 4.7279 15.3899 4.88294 15.6717C5.01971 15.9174 5.20362 16.1337 5.42413 16.3082C5.64464 16.4827 5.89741 16.612 6.16797 16.6886C6.43853 16.7652 6.72155 16.7877 7.00082 16.7548C7.28008 16.7219 7.55011 16.6342 7.79542 16.4967C7.83871 15.9883 8.06528 15.513 8.43294 15.1592C6.20794 14.9092 3.88294 14.0467 3.88294 10.2217C3.86889 9.22788 4.23562 8.26631 4.90794 7.53423C4.60222 6.67045 4.63799 5.72252 5.00794 4.88423C5.00794 4.88423 5.84541 4.62172 7.75794 5.90923C9.39423 5.45921 11.1216 5.45921 12.7579 5.90923C14.6704 4.60923 15.5079 4.88423 15.5079 4.88423C15.8779 5.72251 15.9137 6.67046 15.6079 7.53423C16.2823 8.26506 16.6493 9.22747 16.6329 10.2217C16.6329 14.0592 14.2954 14.9092 12.0704 15.1592C12.3091 15.4011 12.4929 15.6915 12.6094 16.0107C12.7258 16.33 12.7722 16.6705 12.7454 17.0092C12.7454 18.3468 12.7329 19.4217 12.7329 19.7592C12.7329 20.0217 12.9204 20.3342 13.4204 20.2342C15.6691 19.4771 17.5755 17.9455 18.7994 15.9128C20.0232 13.88 20.4848 11.4785 20.1018 9.13694C19.7188 6.79535 18.5161 4.66608 16.7084 3.12922C14.9007 1.59235 12.6056 0.747939 10.2329 0.746704Z" fill="#14142B"/>
</svg>
